<?xml version="1.0" encoding="UTF-8" standalone="no"?>
<!-- Created with Inkscape (http://www.inkscape.org/) -->

<svg
   xmlns:dc="http://purl.org/dc/elements/1.1/"
   xmlns:cc="http://creativecommons.org/ns#"
   xmlns:rdf="http://www.w3.org/1999/02/22-rdf-syntax-ns#"
   xmlns:svg="http://www.w3.org/2000/svg"
   xmlns="http://www.w3.org/2000/svg"
   xmlns:xlink="http://www.w3.org/1999/xlink"
   xmlns:sodipodi="http://sodipodi.sourceforge.net/DTD/sodipodi-0.dtd"
   xmlns:inkscape="http://www.inkscape.org/namespaces/inkscape"
   width="67mm"
   height="117mm"
   viewBox="0 0 67 117"
   version="1.1"
   id="svg8"
   inkscape:version="0.92.4 (5da689c313, 2019-01-14)"
   sodipodi:docname="витяпоц.svg">
  <defs
     id="defs2">
    <linearGradient
       id="linearGradient6097"
       inkscape:collect="always">
      <stop
         id="stop6093"
         offset="0"
         style="stop-color:#27b17d;stop-opacity:1;" />
      <stop
         id="stop6095"
         offset="1"
         style="stop-color:#27b17d;stop-opacity:0;" />
    </linearGradient>
    <linearGradient
       id="linearGradient6065"
       inkscape:collect="always">
      <stop
         id="stop6061"
         offset="0"
         style="stop-color:#24a474;stop-opacity:1;" />
      <stop
         id="stop6063"
         offset="1"
         style="stop-color:#24a474;stop-opacity:0;" />
    </linearGradient>
    <linearGradient
       gradientUnits="userSpaceOnUse"
       y2="148.8652"
       x2="102.76622"
       y1="148.8652"
       x1="72.62516"
       id="linearGradient6051"
       xlink:href="#linearGradient6065"
       inkscape:collect="always"
       gradientTransform="translate(-27.726668,-1.0452089)" />
    <linearGradient
       gradientTransform="translate(-27.72667,-1.0452089)"
       gradientUnits="userSpaceOnUse"
       y2="139.8775"
       x2="102.76399"
       y1="139.8775"
       x1="76.225342"
       id="linearGradient6067"
       xlink:href="#linearGradient6065"
       inkscape:collect="always" />
    <linearGradient
       gradientUnits="userSpaceOnUse"
       y2="130.4137"
       x2="102.75591"
       y1="130.4137"
       x1="82.766365"
       id="linearGradient6091"
       xlink:href="#linearGradient6097"
       inkscape:collect="always"
       gradientTransform="translate(-27.726668,-1.0452089)" />
    <linearGradient
       gradientUnits="userSpaceOnUse"
       y2="140.22159"
       x2="133.19228"
       y1="140.22159"
       x1="71.829506"
       id="linearGradient6099"
       xlink:href="#linearGradient6097"
       inkscape:collect="always"
       gradientTransform="translate(-27.726668,-1.0452089)" />
  </defs>
  <sodipodi:namedview
     id="base"
     pagecolor="#ffffff"
     bordercolor="#666666"
     borderopacity="1.0"
     inkscape:pageopacity="0.0"
     inkscape:pageshadow="2"
     inkscape:zoom="0.7"
     inkscape:cx="-138.61371"
     inkscape:cy="349.48495"
     inkscape:document-units="mm"
     inkscape:current-layer="layer1-8"
     showgrid="false"
     inkscape:window-width="1366"
     inkscape:window-height="705"
     inkscape:window-x="-8"
     inkscape:window-y="-8"
     inkscape:window-maximized="1" />
  <metadata
     id="metadata5">
    <rdf:RDF>
      <cc:Work
         rdf:about="">
        <dc:format>image/svg+xml</dc:format>
        <dc:type
           rdf:resource="http://purl.org/dc/dcmitype/StillImage" />
        <dc:title></dc:title>
      </cc:Work>
    </rdf:RDF>
  </metadata>
  <g
     inkscape:label="Layer 1"
     inkscape:groupmode="layer"
     id="layer1"
     transform="translate(0,-180)">
    <g
       transform="translate(24.568452,-131.17019)"
       id="layer1-8"
       inkscape:label="Layer 1">
      <g
         transform="translate(-0.98712115,232.4335)"
         id="g919">
        <g
           inkscape:label="Layer 1"
           id="layer1-4">
          <g
             id="g1019"
             transform="matrix(1.0834133,0,0,1.2495709,-70.662156,-37.126077)">
            <g
               style="display:none"
               id="layer1-3"
               inkscape:label="Layer 1">
              <image
                 sodipodi:absref="C:\Users\Utopia\Desktop\jZVpqohhgOQ.jpg"
                 xlink:href="jZVpqohhgOQ.jpg"
                 width="220.10814"
                 height="178.15277"
                 preserveAspectRatio="none"
                 id="image6007"
                 x="-8.0005007"
                 y="68.450401" />
            </g>
            <g
               inkscape:label="Layer 2"
               id="layer6" />
            <g
               inkscape:label="Layer 3"
               id="layer7">
              <path
                 sodipodi:nodetypes="ccaaaaaaacaaaaasaaaaccc"
                 inkscape:connector-curvature="0"
                 id="path6012"
                 d="m 72.699852,185.50566 -0.20045,-6.61493 c 0,0 -6.432945,-2.79545 -9.421248,-4.61039 -3.266744,-1.98405 -6.553267,-4.07817 -9.220801,-6.81538 -2.846204,-2.92055 -5.417985,-6.27062 -7.015824,-10.0226 -1.761082,-4.13531 -2.581477,-8.73523 -2.605878,-13.22985 -0.02583,-4.75712 0.911166,-9.58656 2.605878,-14.03165 1.837013,-4.81833 5.137045,-8.9531 8.018087,-13.22984 2.747587,-4.07864 5.75312,-7.98227 8.819893,-11.82667 3.339943,-4.18684 10.423513,-12.227583 10.423513,-12.227583 0,0 7.19854,6.578324 10.42351,10.223053 2.62137,2.96256 4.93261,6.19122 7.21628,9.42126 1.97931,2.79956 3.92002,5.6378 5.61266,8.61944 1.79982,3.17043 3.390988,6.46433 4.810848,9.82215 1.07831,2.55008 2.33158,5.08995 2.80633,7.81764 0.53849,3.0939 0.41942,6.30897 0,9.42125 -0.47195,3.50209 -1.31685,7.01856 -2.80633,10.22306 -1.09367,2.35296 -2.720608,4.44502 -4.409948,6.41446 -2.03116,2.36794 -4.29838,4.57123 -6.81537,6.41447 -2.65466,1.94406 -5.78108,3.14644 -8.61944,4.81086 -1.75962,1.03185 -5.21176,3.20723 -5.21176,3.20723 l -0.4009,6.01356 z"
                 style="fill:url(#linearGradient6099);fill-opacity:1;stroke:none;stroke-width:0.26458332px;stroke-linecap:butt;stroke-linejoin:miter;stroke-opacity:1" />
              <path
                 sodipodi:nodetypes="caaaaasssaaasccc"
                 inkscape:connector-curvature="0"
                 id="path6014"
                 d="m 74.704372,170.07084 c 0,0 -3.26206,-1.07299 -4.810846,-1.80407 -1.813725,-0.85614 -3.552435,-1.88018 -5.211757,-3.00678 -1.692147,-1.14888 -3.33075,-2.397 -4.81085,-3.80859 -2.50176,-2.38597 -4.787795,-5.01754 -6.815372,-7.81764 -1.686906,-2.32963 -3.198282,-4.80815 -4.409948,-7.41673 -1.548899,-3.33461 -2.186164,-13.81419 -3.608139,-10.42351 -0.664711,1.58499 -0.89137,6.08684 -1.00226,9.02035 -0.08424,2.22855 0.510567,4.43966 1.00226,6.61492 0.507975,2.24729 1.096935,4.49722 2.00452,6.61492 0.907586,2.1177 1.993842,4.19439 3.407688,6.01357 1.420962,1.82833 3.22077,3.34254 5.011304,4.81085 2.078262,1.70426 4.314938,3.21981 6.614921,4.6104 3.350211,2.02557 10.423509,5.4122 10.423509,5.4122 l 2.02958,0.0501 z"
                 style="fill:#209066;fill-opacity:1;stroke:none;stroke-width:0.26458332px;stroke-linecap:butt;stroke-linejoin:miter;stroke-opacity:1" />
              <path
                 sodipodi:nodetypes="caaacsssssscccc"
                 inkscape:connector-curvature="0"
                 id="path6016"
                 d="m 74.704372,170.07084 c 0,0 5.72156,-2.06214 8.31877,-3.60814 3.53757,-2.10576 6.96811,-4.55694 9.72193,-7.61718 2.69558,-2.99553 4.50365,-6.69941 6.41447,-10.24738 1.981428,-3.67909 5.211748,-11.40145 5.211748,-11.40145 0,0 0.73125,4.39493 0.80181,6.61492 0.0744,2.34124 10e-4,4.70819 -0.4009,7.01582 -0.32309,1.85365 -0.91295,3.66196 -1.60362,5.41221 -0.71295,1.80673 -1.54851,3.58249 -2.60588,5.21176 -1.318048,2.03094 -2.877568,3.92172 -4.610398,5.61266 -1.94193,1.89499 -4.18188,3.46935 -6.41447,5.0113 -1.80093,1.24383 -5.61266,3.40769 -5.61266,3.40769 l -6.81537,3.80859 -2.58082,-0.35081 z"
                 style="fill:#123b20;fill-opacity:0.90277782;stroke:none;stroke-width:0.26458332px;stroke-linecap:butt;stroke-linejoin:miter;stroke-opacity:1" />
              <path
                 sodipodi:nodetypes="caaasaccccsssscccccc"
                 inkscape:connector-curvature="0"
                 id="path6018"
                 d="m 48.645599,125.77092 c 0,0 1.816365,5.42372 3.006783,8.01808 0.985198,2.14711 2.266104,4.14581 3.407685,6.21402 1.329734,2.40909 2.450217,4.94869 4.009043,7.21628 1.827101,2.65784 3.978148,5.09223 6.214018,7.41673 2.000359,2.07966 3.950722,4.31099 6.414468,5.81311 0.974876,0.59437 3.207236,1.20271 3.207236,1.20271 l -0.20046,8.41899 -2.645326,-0.83257 -2.905694,-1.27567 c 0,0 -2.097791,-1.14905 -3.118302,-1.77176 -1.252873,-0.7645 -2.523876,-1.5122 -3.685268,-2.4096 -1.085176,-0.8385 -2.067481,-1.80458 -3.047434,-2.76395 -1.301565,-1.27423 -2.604115,-2.55787 -3.756138,-3.96875 -1.405187,-1.72092 -3.827008,-5.45703 -3.827008,-5.45703 l -2.834822,-4.89007 -1.913504,-5.17355 -1.933416,-5.73437 1.437322,-4.6836 z"
                 style="fill:url(#linearGradient6051);fill-opacity:1;stroke:none;stroke-width:0.26458332px;stroke-linecap:butt;stroke-linejoin:miter;stroke-opacity:1" />
              <path
                 sodipodi:nodetypes="caaaaccaaaascc"
                 inkscape:connector-curvature="0"
                 id="path6020"
                 d="m 74.904832,161.65185 c 0,0 4.22703,-2.2597 6.0839,-3.75287 1.58836,-1.27725 2.92003,-2.8514 4.25223,-4.39397 2.53246,-2.93236 5.03003,-5.92977 7.08706,-9.21317 2.0753,-3.31257 3.52843,-6.97667 5.24442,-10.48884 1.01122,-2.06968 2.976558,-6.23661 2.976558,-6.23661 l 3.82229,9.6303 c 0,0 -2.90469,6.95657 -4.530998,10.3552 -1.10373,2.30654 -2.1263,4.67523 -3.54352,6.80357 -1.63618,2.45718 -3.5582,4.74041 -5.66965,6.80357 -1.68355,1.64505 -3.53167,3.14673 -5.5279,4.39397 -1.95355,1.22057 -4.11506,2.07926 -6.23661,2.97656 -1.36147,0.57583 -4.15824,1.54128 -4.15824,1.54128 z"
                 style="fill:#177d56;fill-opacity:1;stroke:none;stroke-width:0.26458332px;stroke-linecap:butt;stroke-linejoin:miter;stroke-opacity:1" />
              <path
                 sodipodi:nodetypes="caaacsssaasccc"
                 inkscape:connector-curvature="0"
                 id="path6022"
                 d="m 74.893862,150.24497 c 0,0 -4.840966,-4.4371 -6.945311,-6.94532 -1.853398,-2.20911 -3.632842,-4.52748 -4.960937,-7.08705 -1.66577,-3.21036 -2.378562,-6.83287 -3.685268,-10.20536 -1.29337,-3.33807 -4.11049,-9.92187 -4.11049,-9.92187 0,0 -3.188818,4.02848 -5.123006,7.16904 -0.74622,1.21164 -1.423253,2.51651 -1.423253,2.51651 -0.968953,3.61618 2.062857,6.84975 4.136659,10.44168 1.212396,2.09993 2.019345,4.41666 3.225655,6.52009 1.378718,2.40406 2.847238,4.77458 4.570105,6.94531 1.620533,2.0418 3.566698,3.80293 5.38616,5.66964 1.399128,1.43546 4.252233,4.25224 4.252233,4.25224 l 4.688423,2.05197 z"
                 style="fill:url(#linearGradient6067);fill-opacity:1;stroke:none;stroke-width:0.26458332px;stroke-linecap:butt;stroke-linejoin:miter;stroke-opacity:1" />
              <path
                 sodipodi:nodetypes="cccccccsasscc"
                 inkscape:connector-curvature="0"
                 id="path6024"
                 d="m 74.893862,150.24497 6.09487,-5.24442 6.37835,-10.20536 5.10268,-13.60714 2.12611,-4.8192 5.953128,11.19754 -3.401788,7.51228 c 0,0 -1.96474,4.83233 -3.26004,7.08705 -1.20747,2.10184 -2.74594,3.99617 -4.17633,5.95313 -1.68182,2.30096 -3.5303,5.17513 -5.17858,6.80357 -1.60072,1.58146 -3.02273,3.09255 -5.38616,4.39397 l -4.24127,2.33546 z"
                 style="fill:#1b9466;fill-opacity:1;stroke:none;stroke-width:0.26458332px;stroke-linecap:butt;stroke-linejoin:miter;stroke-opacity:1" />
              <path
                 sodipodi:nodetypes="cscccssccc"
                 inkscape:connector-curvature="0"
                 id="path6026"
                 d="m 61.144983,108.43135 c 0,0 3.679841,9.58143 5.953125,14.17411 2.103145,4.24895 7.087054,12.33147 7.087054,12.33147 l 0.56696,0.28348 0.14174,15.02456 c 0,0 -5.141129,-4.80371 -7.370531,-7.51228 -1.857236,-2.25641 -3.665472,-4.60917 -4.960938,-7.2288 -1.410708,-2.85267 -3.678145,-9.07142 -3.678145,-9.07142 l -3.692392,-10.3471 z"
                 style="fill:url(#linearGradient6091);fill-opacity:1;stroke:none;stroke-width:0.26458332px;stroke-linecap:butt;stroke-linejoin:miter;stroke-opacity:1" />
              <path
                 sodipodi:nodetypes="cssccssscc"
                 inkscape:connector-curvature="0"
                 id="path6028"
                 d="m 74.752122,135.22041 c 0,0 3.7172,-4.67345 5.24442,-7.22879 1.56108,-2.612 2.7754,-5.4218 3.96875,-8.22098 1.70022,-3.98812 4.53572,-12.18974 4.53572,-12.18974 l 6.09486,8.78795 c 0,0 -2.94983,7.36245 -4.39397,11.0558 -0.95859,2.45155 -1.65941,5.01524 -2.83482,7.37054 -1.79129,3.5894 -3.76523,7.16166 -6.37835,10.20536 -1.74589,2.03356 -6.09487,5.24442 -6.09487,5.24442 z"
                 style="fill:#28b782;fill-opacity:1;stroke:none;stroke-width:0.26458332px;stroke-linecap:butt;stroke-linejoin:miter;stroke-opacity:1" />
              <path
                 sodipodi:nodetypes="cccsssccc"
                 inkscape:connector-curvature="0"
                 id="path6030"
                 d="m 82.406142,100.49385 -7.51228,17.15067 -0.14174,17.57589 c 0,0 0.0703,-0.12658 0.63241,-0.6525 1.09775,-1.02698 2.61416,-3.24791 3.47808,-4.45018 2.04692,-2.84859 3.40811,-6.1435 4.8192,-9.35491 1.37701,-3.13386 3.54353,-9.63839 3.54353,-9.63839 l 1.27567,-3.54353 z"
                 style="fill:#27b17d;fill-opacity:1;stroke:none;stroke-width:0.26458332px;stroke-linecap:butt;stroke-linejoin:miter;stroke-opacity:1" />
              <path
                 inkscape:connector-curvature="0"
                 id="path6032"
                 d="m 74.893862,117.64452 -0.79084,-24.747753 8.30312,7.597083 z"
                 style="fill:#2fd294;fill-opacity:1;stroke:none;stroke-width:0.26458332px;stroke-linecap:butt;stroke-linejoin:miter;stroke-opacity:1" />
              <path
                 sodipodi:nodetypes="cccssssc"
                 inkscape:connector-curvature="0"
                 id="path6101"
                 d="m 72.499402,178.89073 2.28033,-0.002 2.33007,0.40307 c 0,0 0.21032,4.09973 -0.4009,6.0134 -0.0464,0.14542 -0.11391,0.30405 -0.24006,0.39002 -0.15839,0.10794 -0.56599,0.10146 -0.56599,0.10146 -0.1844,0.0331 -2.71902,0.28845 -3.203,-0.29082 -0.818734,-0.97995 -0.12033,-6.59938 -0.20045,-6.61513 z"
                 style="fill:#1a542d;fill-opacity:1;stroke:none;stroke-width:0.26458332px;stroke-linecap:butt;stroke-linejoin:miter;stroke-opacity:1" />
            </g>
          </g>
        </g>
        <g
           id="layer2"
           inkscape:label="Layer 2" />
        <g
           id="layer3"
           inkscape:label="Layer 3" />
      </g>
    </g>
  </g>
  <g
     inkscape:groupmode="layer"
     id="layer4"
     inkscape:label="Layer 2"
     transform="translate(0,-180)" />
</svg>
